# xmcd
#
# Track frame offsets: 
#        150
#        16178
#        48563
#        67425
#        90586
#        112105
#        131232
#        148649
#        164759
#        181286
#        197408
#        216917
#        233636
#        248162
#        260407
#        282442
#
# Disc length: 3966 seconds
#
# Revision: 0
# Processed by: cddbd v1.5.2PL0 Copyright (c) Steve Scherf et al.
# Submitted via: ExactAudioCopyFreeDBPlugin 1.0
#
DISCID=f80f7c10
DTITLE=Various Artist - New Country Rock 09
DYEAR=2015
DGENRE=Country
TTITLE0=Tempesta - The Way It Is
TTITLE1=Dean Collins - Buffalo River Home
TTITLE2=Irion - Ground Zero
TTITLE3=Mark Shelby - Mile Zero
TTITLE4=Tim Grimm - The Lake
TTITLE5=Delta Moon - Walk Out In The River
TTITLE6=Miko Marks - Exited
TTITLE7=Get The Cat - A Man For Saturday Night
TTITLE8=Dr. Will - Another Fishing Song
TTITLE9=Collin Raye - Something To Say
TTITLE10=John Campbelljohn - Key To The Hoghway
TTITLE11=Buffalo C. Wayne - No Money
TTITLE12=Willie Logan - Both Feet On The Ground
TTITLE13=JP Den Tex - Heart Of Darkness
TTITLE14=Steve Fister - Found Out The Hard Way
TTITLE15=Blues Bureau - Born To Boogie
EXTD=
EXTT0=
EXTT1=
EXTT2=
EXTT3=
EXTT4=
EXTT5=
EXTT6=
EXTT7=
EXTT8=
EXTT9=
EXTT10=
EXTT11=
EXTT12=
EXTT13=
EXTT14=
EXTT15=
PLAYORDER=
